<?xml version="1.0" encoding="UTF-8"?>
<svg version="1.1" xmlns="http://www.w3.org/2000/svg" width="95" height="95">
<path d="M0 0 C31.35 0 62.7 0 95 0 C95 31.35 95 62.7 95 95 C63.65 95 32.3 95 0 95 C0 63.65 0 32.3 0 0 Z " fill="#FEFEFE" transform="translate(0,0)"/>
<path d="M0 0 C5.27767164 4.62763583 7.61797931 11.78261472 8.42578125 18.5859375 C8.65159476 29.54383503 6.5703398 37.8999073 -1 46 C-8.3330114 52.71054046 -15.1873716 55.41877289 -25.09375 55.10546875 C-26.03734375 55.05326172 -26.03734375 55.05326172 -27 55 C-25.31220203 49.26469496 -22.72160656 44.06018983 -20.09765625 38.7109375 C-19.61928818 37.73009186 -19.1409201 36.74924622 -18.64805603 35.73867798 C-17.6387392 33.67187731 -16.62751389 31.6060077 -15.61450195 29.54101562 C-14.06582241 26.38177756 -12.52570885 23.21846503 -10.98632812 20.0546875 C-10.00311762 18.04401967 -9.01941048 16.03359461 -8.03515625 14.0234375 C-7.57569107 13.0785849 -7.11622589 12.1337323 -6.64283752 11.1602478 C-6.20906296 10.27898224 -5.77528839 9.39771667 -5.32836914 8.48974609 C-4.95023575 7.7173056 -4.57210236 6.94486511 -4.18251038 6.14901733 C-2.96115343 3.92940278 -1.56604374 1.98795656 0 0 Z " fill="#6BBD84" transform="translate(41,15)"/>
<path d="M0 0 C0.99 0 1.98 0 3 0 C5.00973168 3.9326066 7.00609715 7.87184742 9 11.8125 C9.57234375 12.93205078 10.1446875 14.05160156 10.734375 15.20507812 C11.27578125 16.27822266 11.8171875 17.35136719 12.375 18.45703125 C13.12910156 19.9416687 13.12910156 19.9416687 13.8984375 21.45629883 C15 24 15 24 15 27 C12.77144426 27.0814222 10.54202345 27.13938079 8.3125 27.1875 C6.45044922 27.23970703 6.45044922 27.23970703 4.55078125 27.29296875 C-0.0711474 26.9116215 -2.57850882 25.42149118 -5.8125 22.1875 C-7.43370327 19.20107291 -7.29882719 17.39069254 -7 14 C-5.91710949 11.41984762 -4.82188925 9.06972953 -3.5 6.625 C-2.99919922 5.66400391 -2.99919922 5.66400391 -2.48828125 4.68359375 C-1.66973549 3.11666329 -0.83635487 1.55749759 0 0 Z " fill="#6EBF87" transform="translate(54,44)"/>
</svg>
